<?xml version="1.0" encoding="UTF-8"?>
<!-- Generator: Adobe Illustrator 15.1.0, SVG Export Plug-In . SVG Version: 6.00 Build 0)  -->
<!DOCTYPE svg PUBLIC "-//W3C//DTD SVG 1.1//EN" "http://www.w3.org/Graphics/SVG/1.1/DTD/svg11.dtd">
<svg version="1.1" id="Ebene_1" xmlns="http://www.w3.org/2000/svg" xmlns:xlink="http://www.w3.org/1999/xlink" x="0px" y="0px" width="309.677px" height="61.806px" viewBox="0 0 309.677 61.806" enable-background="new 0 0 309.677 61.806" xml:space="preserve">
<g>
	<g>
		<g>
			<g>
				<path fill="#941230" stroke="#FFFFFF" stroke-width="0.25" d="M182.425,33.749c-0.021-1.022-0.037-2.163-0.037-3.409      c0-6.38,0.369-12.833,1.104-19.36c0.832-7.237,1.758-10.855,2.787-10.855c1.273,0,1.904,0.698,1.904,2.092      c-0.021,0.217-0.096,0.647-0.221,1.283l-0.438,2.604c-0.467,2.588-0.783,4.582-0.951,5.975      c-0.684,5.821-1.029,12.418-1.029,19.802c0,8.921,1.566,13.385,4.695,13.385c0.562,0,0.988-0.221,1.283-0.662h0.842l0.658,0.662      l0.037,0.103c0.051,0.191,0.074,0.416,0.074,0.677c-0.832,1.022-1.883,1.53-3.152,1.53c-1.883,0-3.508-1.074-4.879-3.229      C183.513,41.854,182.624,38.323,182.425,33.749z"/>
				<path fill="#941230" stroke="#FFFFFF" stroke-width="0.25" d="M220.208,42.772c-2.332-0.831-3.498-3.544-3.498-8.141      c0-0.489,0-0.993,0-1.508c-2.412,3.232-5.066,6.178-7.963,8.84c-3.727,3.423-6.664,5.133-8.805,5.133      c-0.705,0-1.316-0.195-1.826-0.588c-0.879-0.655-1.314-1.732-1.314-3.221c0-3.06,1.637-7.178,4.914-12.359      c3.176-4.964,6.648-9.045,10.414-12.249c4.104-3.493,7.148-4.596,9.129-3.298c0.932,0.584,1.395,1.82,1.395,3.703      c0,2.247-0.771,3.445-2.309,3.589c-1.078,0.077-1.615-0.302-1.615-1.133c0-0.121,0.025-0.235,0.07-0.331      c0.467-1.147,0.684-2.177,0.662-3.081c0-0.537-0.059-0.794-0.184-0.769c-2.42,0.438-6.34,4.173-11.754,11.204      c-5.412,7.027-8.119,11.874-8.119,14.54c0,0.927,0.412,1.39,1.244,1.39c2.129,0,5.465-2.75,10.012-8.251      c3.152-3.81,4.877-5.928,5.172-6.34c1.393-1.934,2.188-3.707,2.383-5.317c0.121-1.104,0.709-1.655,1.76-1.655      c1.494,0,2.09,0.724,1.795,2.166c-1.199,6.284-1.795,10.108-1.795,11.476c0,2.493,0.549,3.891,1.648,4.185      c0.389,0.096,0.809,0.022,1.25-0.22c0.363-0.221,0.574-0.441,0.621-0.662c0.246-1.052,0.857-1.578,1.836-1.578      c0.584,0,0.879,0.32,0.879,0.953c0,0.272-0.074,0.603-0.221,0.993c-0.762,1.905-2.137,2.861-4.123,2.861      C221.325,43.104,220.771,42.993,220.208,42.772z"/>
				<path fill="#941230" stroke="#FFFFFF" stroke-width="0.25" d="M234.163,38.444c2.492-4.203,5.59-7.92,9.277-11.146      c4.475-3.912,8.641-5.869,12.506-5.869c1.271,0,2.494,0.353,3.666,1.063c1.541,0.952,2.312,2.235,2.312,3.85      c0,3.839-2.775,8.495-8.324,13.974c-5.553,5.472-10.135,8.215-13.752,8.215c-2.982,0-4.473-1.118-4.473-3.339      c0-1.225,0.584-2.445,1.758-3.67c0.295-0.294,0.684-0.438,1.174-0.438c0.539,0,0.805,0.195,0.805,0.584      c0,0.294-0.158,0.673-0.475,1.14c-0.662,0.952-0.988,1.625-0.988,2.015c0,0.632,0.463,0.956,1.393,0.956      c3.057,0,7.174-2.604,12.355-7.811c5.137-5.137,7.703-9.083,7.703-11.848c0-1.489-1.006-2.236-3.008-2.236      c-4.838,0-10.84,4.692-18.002,14.083l-0.115,0.144l-0.291,0.515c-1.539,2.589-2.691,3.887-3.449,3.887      c-1.609,0-2.662-1.11-3.154-3.339c-0.168-0.927-0.254-2.662-0.254-5.207c0-4.25,1.121-10.755,3.373-19.503      c2.324-8.998,4.154-13.495,5.5-13.495c0.42,0,0.883,0.169,1.395,0.511c0.609,0.394,0.916,0.857,0.916,1.394      c0,0.147-0.037,0.305-0.107,0.478c-2.496,6.354-3.949,10.178-4.365,11.476c-2.545,7.774-3.812,14.543-3.812,20.316      C233.726,36.345,233.868,37.441,234.163,38.444z"/>
				<path fill="#941230" stroke="#FFFFFF" stroke-width="0.25" d="M283.595,19.599c-0.15,0-0.629-0.221-1.449-0.662      c-0.818-0.441-1.438-0.673-1.854-0.699c-1.658-0.147-3.982,1.066-6.963,3.633c-3.082,2.64-4.623,4.898-4.623,6.784      c0,1,1.783,1.504,5.35,1.504c6.898,0,10.344,1.92,10.344,5.755c0,2.714-1.521,5.145-4.574,7.299      c-2.779,1.956-5.553,2.931-8.307,2.931c-1.221,0-2.355-0.379-3.404-1.136c-1.221-0.857-1.828-1.967-1.828-3.339      c0-0.559,0.242-1.221,0.725-1.979c0.555-0.882,1.148-1.32,1.775-1.32c0.17,0,0.34,0.033,0.508,0.11      c-0.088,0.856-0.23,1.515-0.426,1.982c-0.107,0.265-0.162,0.548-0.162,0.842c0,1.099,0.658,1.647,1.975,1.647      c2.025,0,4.336-0.658,6.947-1.982c2.904-1.463,4.354-3,4.354-4.615c0-1.004-0.504-1.835-1.508-2.497      c-0.832-0.537-1.75-0.831-2.754-0.875l-7.057-0.257c-1.178-0.051-2.316-0.294-3.42-0.735c-1.494-0.588-2.24-1.368-2.24-2.346      c0-2.419,1.902-5.486,5.699-9.186c3.803-3.707,7.014-5.556,9.627-5.556c0.732,0,1.625,0.283,2.678,0.842      c1.246,0.688,1.871,1.445,1.871,2.272C284.878,19.069,284.448,19.599,283.595,19.599z"/>
			</g>
			<path fill="#941230" d="M60.038,47.104c-1.872-0.287-3.151-0.861-3.868-1.53c-0.548-0.522-0.916-1.173-1.114-1.953     c-0.202-0.783-0.302-2.015-0.302-3.707l-0.037-2.82V24.479c0-2.629-0.934-4.751-2.806-6.376     c-1.875-1.625-4.298-2.438-7.273-2.438c-2.209,0-4.265,0.449-6.174,1.338c-1.912,0.894-3.809,2.294-5.696,4.207     c-1.217-1.787-2.291-3.037-3.24-3.758c-1.559-1.191-3.511-1.787-5.847-1.787c-2.11,0-4.137,0.449-6.085,1.338     c-1.949,0.897-3.703,2.169-5.266,3.839c-0.114-1.53-0.633-4.243-0.717-4.604c-0.081-0.36-0.382-0.544-0.919-0.478     c-0.548,0.073-9.398,1.177-9.398,1.177c-1.339,0.184-1.037,0.632,0,0.75c1.11,0.125,1.967,0.265,2.559,0.581     c0.596,0.309,1.1,0.809,1.519,1.504c0.423,0.644,0.691,1.478,0.82,2.511c0.118,1.03,0.18,2.817,0.18,5.369v9.186     c0,2.18-0.055,3.846-0.166,5c-0.118,1.151-0.302,2.015-0.574,2.589c-0.404,0.864-0.927,1.479-1.57,1.839     c-0.647,0.356-1.713,0.632-3.203,0.838c-1.247,0.125-1.044,0.75,0,0.75h16.43c1.136,0,0.956-0.566,0-0.75     c-1.861-0.368-3.141-0.861-3.832-1.53c-0.57-0.522-0.956-1.173-1.155-1.953c-0.195-0.783-0.294-2.015-0.294-3.707l-0.037-2.747     v-6.81c0-2.258,0.144-4.096,0.427-5.527c0.287-1.423,0.757-2.644,1.427-3.659c0.721-1.144,1.699-2.048,2.938-2.721     c1.239-0.666,2.563-1,3.975-1c1.243,0,2.354,0.25,3.346,0.761s1.758,1.209,2.302,2.103c0.522,0.842,0.875,1.938,1.063,3.292     c0.188,1.349,0.279,3.479,0.279,6.38v6.887c0,2.155-0.055,3.81-0.166,4.957c-0.114,1.155-0.309,2.015-0.581,2.589     c-0.419,0.872-0.952,1.486-1.585,1.846c-0.632,0.356-1.695,0.632-3.188,0.838c-1.03,0.114-1.272,0.75,0,0.75h16.434     c1.062,0,1.048-0.544,0-0.75c-1.879-0.383-3.174-0.861-3.872-1.53c-0.544-0.522-0.912-1.173-1.111-1.953     c-0.202-0.783-0.301-2.015-0.301-3.707l-0.03-2.82v-7.189c0-4.137,0.603-7.189,1.817-9.152c1.386-2.284,3.618-3.427,6.688-3.427     c2.85,0,4.861,1.059,6.023,3.166c0.492,0.894,0.827,1.975,1.004,3.24c0.173,1.261,0.257,3.272,0.257,6.023v7.112     c0,2.158-0.055,3.81-0.165,4.964c-0.114,1.155-0.306,2.015-0.577,2.589c-0.423,0.872-0.949,1.482-1.581,1.842     c-0.64,0.357-1.699,0.636-3.188,0.842c-1.041,0.099-1.202,0.75,0,0.75h16.43C60.931,47.854,60.983,47.244,60.038,47.104z      M132.172,8.097c1.06,0,1.942-0.338,2.633-1.019c0.699-0.68,1.045-1.537,1.045-2.57c0-1.007-0.354-1.853-1.06-2.552     c-0.713-0.695-1.585-1.041-2.618-1.041c-1.036,0-1.908,0.346-2.614,1.041c-0.713,0.699-1.062,1.544-1.062,2.552     c0,1.033,0.342,1.89,1.041,2.57C130.231,7.759,131.11,8.097,132.172,8.097z M141.623,47.104c-1.86-0.353-3.136-0.861-3.831-1.526     c-0.573-0.519-0.956-1.166-1.154-1.953c-0.199-0.779-0.302-2.004-0.302-3.692l-0.033-2.816V17.356     c0-2.144-6.623-2.419-11.175-2.39c-4.557,0.026-10.043,2.309-11.208,3.221c-2.489-1.681-4.92-2.522-7.311-2.522     c-1.566,0-3.089,0.324-4.585,0.971c-1.489,0.64-2.784,1.548-3.872,2.714c-1.864,1.956-2.795,4.192-2.795,6.7     c0,1.96,0.596,3.754,1.787,5.376c1.191,1.625,2.875,2.935,5.038,3.927c-2.243,0.57-3.417,0.919-4.638,1.596     c-2.511,1.39-4.235,5.865-5.27,7.296c-0.5,0.699-1.713,2.059-3.354,2.059c-1.61,0-2.625-0.875-3.044-2.64     c-0.202-0.85-0.302-2.435-0.302-4.766V25.122c0-1.765-0.104-3.015-0.294-3.765c-0.401-1.464-1.405-2.655-3.02-3.571     c-1.117-0.622-2.504-1.129-4.166-1.526s-3.266-0.596-4.803-0.596c-1.367,0-2.758,0.14-4.185,0.43     c-1.434,0.283-2.629,0.654-3.593,1.1c-1.79,0.875-2.684,1.949-2.684,3.214c0,0.853,0.286,1.552,0.856,2.118     c0.573,0.559,1.287,0.838,2.133,0.838c1.294,0,2.188-0.581,2.685-1.754l0.93-2.162c0.397-0.923,0.993-1.644,1.784-2.169     c0.786-0.522,1.691-0.783,2.706-0.783c0.842,0,1.654,0.188,2.435,0.559c0.779,0.371,1.412,0.868,1.912,1.485     c1.081,1.338,1.625,3.46,1.625,6.354c0,1.361-0.147,2.431-0.441,3.199c-0.302,0.772-0.846,1.441-1.64,2.008     c-0.691,0.522-1.552,0.971-2.581,1.346c-1.03,0.375-2.618,0.831-4.781,1.375c-1.831,0.471-3.235,0.934-4.199,1.397     c-0.963,0.459-1.82,1.074-2.566,1.838c-1.312,1.394-1.971,3.118-1.971,5.17c0,2.236,0.809,4.012,2.408,5.325     c1.596,1.316,3.758,1.975,6.49,1.975c2.133,0,4.005-0.445,5.619-1.338c0.842-0.475,2.096-1.449,3.762-2.945     c0.816,1.419,1.61,2.408,2.379,2.982c1.162,0.872,2.629,1.302,4.391,1.302c1.573,0,2.827-0.382,3.879-0.945     c1.556-0.828,4.24-3.648,7.631-1.611l-0.004-0.037c1.36,0.761,3.016,1.169,5.001,1.169h5.924c2.541,0,4.49,0.485,5.854,1.463     c1.367,0.985,2.052,2.397,2.052,4.236c0,6.494-8.51,6.773-11.984,6.921c-6.276,0.271-12.425-1.876-12.425-6.936     c0-1.059-2.324,2.508,0.96,5.795c2.408,2.405,6.615,3.222,11.631,3.222c5.037,0,10.219-1.269,12.825-3.126     c2.53-1.816,3.795-4.332,3.795-7.553c0-2.927-1.088-5.192-3.276-6.803c-1.121-0.824-2.423-1.423-3.923-1.802     c-1.486-0.386-3.317-0.584-5.479-0.584h-6.155c-3.111,0-4.663-0.791-4.663-2.372c0-1.812,1.839-2.824,5.516-3.052     c2.663-0.169,4.244-0.294,4.744-0.368c1.662-0.324,3.221-0.956,4.662-1.901c2.883-1.886,4.332-4.453,4.332-7.711     c0-1.383-0.287-2.736-0.854-4.082c-0.434-1.03-0.257-3.284,2.229-4.236c4.078-1.559,11.649-0.761,11.657,7.789     c0.007,0.522,0.007,1.088,0.007,1.702v9.16c0,2.177-0.055,3.835-0.165,4.986c-0.114,1.147-0.302,2.007-0.574,2.574     c-0.4,0.868-0.915,1.479-1.562,1.839c-0.644,0.356-1.714,0.64-3.206,0.838c-1.236,0.15-1.206,0.75,0,0.75h16.429     C142.696,47.854,142.751,47.31,141.623,47.104z M79.979,35.815c0,3.151-0.383,5.56-1.151,7.229     c-0.544,1.265-1.35,2.28-2.423,3.037c-1.077,0.757-2.221,1.136-3.435,1.136c-1.383,0-2.522-0.533-3.427-1.6     c-0.897-1.074-1.35-2.427-1.35-4.067c0-1.912,0.577-3.589,1.739-5.03c0.569-0.699,1.198-1.294,1.894-1.794     c0.691-0.493,1.935-1.228,3.739-2.199c1.611-0.846,3.074-1.482,4.413-2.603V35.815z M110.856,32.881     c-0.992,1.673-2.379,2.512-4.166,2.512c-1.758,0-3.199-0.842-4.324-2.534c-1.133-1.684-1.691-3.868-1.691-6.542     c0-1.291,0.161-2.578,0.485-3.869c0.316-1.291,0.754-2.379,1.294-3.269c1.096-1.787,2.53-2.684,4.317-2.684     c1.485,0,2.695,0.684,3.641,2.044c1.286,1.838,1.93,4.295,1.93,7.365C112.341,28.88,111.853,31.204,110.856,32.881z      M170.622,40.235c-0.762,1.78-1.475,3.096-2.266,3.898c-1.559,1.515-3.531,2.28-5.906,2.28c-2.867,0-5.369-1.11-7.498-3.35     c-1.359-1.416-2.438-3.173-3.229-5.284c-0.789-2.11-1.188-4.272-1.188-6.479c0-2.405,0.434-4.861,1.303-7.369     c0.566-1.636,1.225-2.993,1.979-4.074c0.756-1.077,1.676-1.979,2.76-2.699c1.24-0.816,2.582-1.228,4.043-1.228     c1.109,0,2.059,0.287,2.816,0.857c0.4,0.298,0.697,0.647,0.912,1.041c0.213,0.397,0.488,1.14,0.83,2.229     c0.773,2.357,1.971,3.534,3.59,3.534c0.742,0,1.383-0.269,1.904-0.798c0.516-0.537,0.779-1.199,0.779-1.993     c0-1.191-0.621-2.287-1.857-3.28c-2.033-1.618-4.85-2.419-8.449-2.419c-2.604,0-5.002,0.456-7.197,1.375     c-2.199,0.919-4.055,2.243-5.559,3.986c-1.346,1.508-2.398,3.332-3.17,5.464c-0.773,2.136-1.154,4.295-1.154,6.479     c0,4.464,1.389,8.164,4.17,11.09c2.854,2.979,6.779,4.468,11.789,4.468c7.604,0,10.479-4.828,11.354-7.464     C171.864,39.198,171.224,38.831,170.622,40.235z"/>
			<path fill="#941230" d="M300.79,2.735c0.6,0,1.084,0.129,1.445,0.39c0.363,0.265,0.547,0.614,0.547,1.044     c0,0.53-0.129,1.243-0.371,2.155l-0.617,2.155c-0.244,0.86-0.354,1.441-0.332,1.725c0,0.386,0.141,0.592,0.434,0.614     c0.119,0,0.561-0.217,1.299-0.654c0.746-0.441,1.537-0.941,2.379-1.511c0.979-0.658,1.773-0.989,2.379-0.989     c0.475,0,0.887,0.243,1.221,0.728c0.336,0.493,0.504,1.074,0.504,1.743c0,1.104-1.029,1.647-3.096,1.647l-2.229,0.11     c-1.463,0-2.207,0.228-2.229,0.677c-0.029,0.294,1.053,1.272,3.236,2.945c1.199,0.916,1.801,1.625,1.801,2.151     c0,0.507-0.252,1.004-0.756,1.507c-0.508,0.508-1.008,0.754-1.512,0.754c-0.475,0-0.875-0.173-1.188-0.519     c-0.309-0.349-0.648-1.004-1.008-1.985l-0.758-2.078c-0.479-1.287-0.867-1.935-1.184-1.935c-0.309,0-0.711,0.647-1.191,1.935     l-0.787,2.078c-0.342,0.952-0.654,1.607-0.963,1.963c-0.295,0.36-0.662,0.541-1.094,0.541c-0.533,0-1.059-0.239-1.588-0.732     c-0.525-0.493-0.791-0.993-0.791-1.493c0-0.555,0.604-1.28,1.795-2.191c2.154-1.655,3.229-2.637,3.229-2.946     c0.029-0.191-0.166-0.356-0.588-0.489c-0.42-0.132-0.963-0.199-1.633-0.199l-2.225-0.103c-2.062,0-3.1-0.577-3.1-1.728     c0-0.644,0.176-1.213,0.504-1.707c0.342-0.489,0.73-0.735,1.195-0.735c0.621,0,1.426,0.346,2.412,1.044     c0.934,0.644,1.566,1.062,1.871,1.254l1.52,0.827l0.25,0.103c0.309,0,0.471-0.261,0.471-0.791c0-0.239-0.115-0.754-0.332-1.548     l-0.621-2.162c-0.246-0.883-0.363-1.596-0.363-2.122c0-0.434,0.188-0.787,0.559-1.062C299.661,2.868,300.161,2.735,300.79,2.735z     "/>
		</g>
	</g>
</g>
</svg>